<svg width="40" height="41" viewBox="0 0 40 41" fill="none" xmlns="http://www.w3.org/2000/svg">
<g clip-path="url(#clip0_6_147)">
<path d="M40 20.5C40 9.45437 31.0456 0.5 20 0.5C8.95437 0.5 0 9.45437 0 20.5C0 30.4825 7.31375 38.7567 16.875 40.257V26.2812H11.7969V20.5H16.875V16.0937C16.875 11.0812 19.8609 8.3125 24.4294 8.3125C26.6175 8.3125 28.9062 8.70312 28.9062 8.70312V13.625H26.3844C23.8998 13.625 23.125 15.1667 23.125 16.7484V20.5H28.6719L27.7852 26.2812H23.125V40.257C32.6862 38.7567 40 30.4827 40 20.5Z" fill="#1877F2"/>
<path d="M27.7852 26.2812L28.6719 20.5H23.125V16.7484C23.125 15.1666 23.8998 13.625 26.3844 13.625H28.9062V8.70312C28.9062 8.70312 26.6175 8.3125 24.4292 8.3125C19.8609 8.3125 16.875 11.0813 16.875 16.0938V20.5H11.7969V26.2812H16.875V40.257C17.9088 40.419 18.9536 40.5003 20 40.5C21.0464 40.5003 22.0912 40.4191 23.125 40.257V26.2812H27.7852Z" fill="white"/>
</g>
<defs>
<clipPath id="clip0_6_147">
<rect width="40" height="40" fill="white" transform="translate(0 0.5)"/>
</clipPath>
</defs>
</svg>
