<svg width="40" height="41" viewBox="0 0 40 41" fill="none" xmlns="http://www.w3.org/2000/svg">
<g clip-path="url(#clip0_6_143)">
<path d="M0.853595 20.2606C0.852657 23.6213 1.73766 26.9029 3.42047 29.7953L0.692657 39.6778L10.8852 37.026C13.7043 38.5488 16.8629 39.3467 20.0727 39.3469H20.0811C30.6772 39.3469 39.3027 30.7914 39.3072 20.2756C39.3092 15.18 37.3111 10.3883 33.6808 6.78336C30.0511 3.17871 25.2238 1.19251 20.0803 1.19019C9.48297 1.19019 0.858126 9.74522 0.853751 20.2606" fill="url(#paint0_linear_6_143)"/>
<path d="M0.167188 20.2544C0.166094 23.7361 1.08281 27.135 2.82562 30.131L0 40.3678L10.558 37.6209C13.467 39.1947 16.7423 40.0245 20.0752 40.0257H20.0837C31.06 40.0257 39.9953 31.1625 40 20.2702C40.0019 14.9915 37.9319 10.0276 34.1719 6.29349C30.4114 2.55984 25.4114 0.502171 20.0837 0.5C9.10562 0.5 0.171563 9.36202 0.167188 20.2544ZM6.45484 29.615L6.06062 28.9941C4.40344 26.3795 3.52875 23.3581 3.53 20.2557C3.53344 11.2022 10.9591 3.83643 20.09 3.83643C24.5119 3.83829 28.6675 5.54868 31.7931 8.65194C34.9186 11.7555 36.6384 15.8811 36.6373 20.269C36.6333 29.3225 29.2075 36.6891 20.0837 36.6891H20.0772C17.1064 36.6876 14.1928 35.896 11.6519 34.4L11.0472 34.0442L4.78188 35.6741L6.45484 29.615Z" fill="url(#paint1_linear_6_143)"/>
<path d="M15.1059 11.9958C14.7331 11.1736 14.3408 11.157 13.9862 11.1426C13.6959 11.1302 13.3641 11.1311 13.0325 11.1311C12.7006 11.1311 12.1614 11.255 11.7056 11.7488C11.2494 12.2431 9.96375 13.4375 9.96375 15.8668C9.96375 18.2962 11.747 20.644 11.9956 20.9738C12.2445 21.3029 15.4383 26.4477 20.4964 28.4269C24.7002 30.0717 25.5556 29.7446 26.468 29.6621C27.3805 29.58 29.4123 28.468 29.8269 27.315C30.2417 26.1621 30.2417 25.1739 30.1173 24.9674C29.993 24.7617 29.6611 24.6381 29.1634 24.3913C28.6656 24.1443 26.2191 22.9497 25.763 22.7849C25.3067 22.6203 24.975 22.5381 24.6431 23.0325C24.3112 23.5262 23.3583 24.6381 23.0678 24.9674C22.7777 25.2975 22.4872 25.3386 21.9897 25.0916C21.4917 24.8438 19.8891 24.3231 17.9877 22.641C16.5083 21.3322 15.5095 19.7159 15.2192 19.2215C14.9289 18.7279 15.1881 18.4603 15.4377 18.2142C15.6612 17.993 15.9355 17.6376 16.1845 17.3494C16.4327 17.061 16.5155 16.8553 16.6814 16.526C16.8475 16.1964 16.7644 15.908 16.6402 15.661C16.5155 15.4141 15.5484 12.9721 15.1059 11.9958Z" fill="white"/>
</g>
<defs>
<linearGradient id="paint0_linear_6_143" x1="1931.42" y1="3849.95" x2="1931.42" y2="1.19019" gradientUnits="userSpaceOnUse">
<stop stop-color="#1FAF38"/>
<stop offset="1" stop-color="#60D669"/>
</linearGradient>
<linearGradient id="paint1_linear_6_143" x1="2000" y1="3987.28" x2="2000" y2="0.5" gradientUnits="userSpaceOnUse">
<stop stop-color="#F9F9F9"/>
<stop offset="1" stop-color="white"/>
</linearGradient>
<clipPath id="clip0_6_143">
<rect width="40" height="40" fill="white" transform="translate(0 0.5)"/>
</clipPath>
</defs>
</svg>
